<svg xmlns="http://www.w3.org/2000/svg" xmlns:xlink="http://www.w3.org/1999/xlink" width="64.171" height="36.43" viewBox="0 0 64.171 36.43">
  <defs>
    <linearGradient id="linear-gradient" x1="0.981" y1="0.011" x2="0.105" y2="1.155" gradientUnits="objectBoundingBox">
      <stop offset="0" stop-color="#a4003e"/>
      <stop offset="0.5" stop-color="#62007f"/>
      <stop offset="0.99" stop-color="#0299d3"/>
    </linearGradient>
  </defs>
  <g id="N-Logo-New_Last" data-name="N-Logo-New Last" transform="translate(0 0.002)">
    <path id="Path_115442" data-name="Path 115442" d="M64.169,5.473V24.121a12.222,12.222,0,0,1-1.037,4.717,11.949,11.949,0,0,1-2.717,3.876,13.41,13.41,0,0,1-4.034,2.629,14,14,0,0,1-4.931,1.083,12.234,12.234,0,0,1-4.819-.949,13.034,13.034,0,0,1-6.749-6.533,12.609,12.609,0,0,1-1.149-4.825l-.066-11.815a4.657,4.657,0,0,0-.421-1.952,5.25,5.25,0,0,0-1.12-1.6A5.115,5.115,0,0,0,35.5,7.7a5.174,5.174,0,0,0-1.989-.379A5.417,5.417,0,0,0,31.5,7.7a5.046,5.046,0,0,0-1.653,1.058,5.211,5.211,0,0,0-1.12,1.6,4.677,4.677,0,0,0-.421,1.952V30.954a3.513,3.513,0,0,1-1.093,2.629A3.621,3.621,0,0,1,24.6,34.641a3.751,3.751,0,0,1-2.716-1.058A3.513,3.513,0,0,1,20.8,30.954V12.3a12.214,12.214,0,0,1,1.037-4.716,11.92,11.92,0,0,1,2.716-3.876,13.349,13.349,0,0,1,4.034-2.629A14.017,14.017,0,0,1,33.516,0a12.234,12.234,0,0,1,4.819.949,12.938,12.938,0,0,1,3.977,2.629,13.1,13.1,0,0,1,2.774,3.9A12.577,12.577,0,0,1,46.233,12.3V24.119H46.3a4.647,4.647,0,0,0,.421,1.952,5.223,5.223,0,0,0,1.12,1.6,5.115,5.115,0,0,0,1.624,1.058,5.185,5.185,0,0,0,1.989.379,5.417,5.417,0,0,0,2.016-.379,5,5,0,0,0,1.652-1.058,5.223,5.223,0,0,0,1.12-1.6,4.682,4.682,0,0,0,.421-1.952V5.471a3.5,3.5,0,0,1,1.093-2.629A3.615,3.615,0,0,1,60.36,1.785a3.751,3.751,0,0,1,2.717,1.058A3.513,3.513,0,0,1,64.17,5.471ZM0,21.954v9.533a3.757,3.757,0,0,0,3.756,3.756h0a3.757,3.757,0,0,0,3.756-3.756V21.954A3.757,3.757,0,0,0,3.756,18.2h0A3.757,3.757,0,0,0,0,21.954ZM10.4,10.686v20.8a3.757,3.757,0,0,0,3.756,3.756h0a3.757,3.757,0,0,0,3.756-3.756v-20.8A3.757,3.757,0,0,0,14.155,6.93h0A3.757,3.757,0,0,0,10.4,10.686Z" fill="url(#linear-gradient)"/>
  </g>
</svg>
